<svg t="1770145051108" class="icon" viewBox="0 0 1024 1024" version="1.1" xmlns="http://www.w3.org/2000/svg" p-id="2468" width="200" height="200"><path d="M852.36 164.08h-45.38v90.76h105.89v-30.25c0-33.42-27.09-60.51-60.51-60.51z" fill="#5F68FD" p-id="2469"></path><path d="M655.71 799.42v-30.25H111.13v30.25c0 33.42 27.09 60.51 60.51 60.51h544.58c-33.42-0.01-60.51-27.1-60.51-60.51z" fill="#4AFFFE" p-id="2470"></path><path d="M852.36 148.95h-559.7c-58.39 0-105.89 47.51-105.89 105.89v499.19h-75.64c-8.35 0-15.13 6.77-15.13 15.13v30.25c0 41.7 33.93 75.64 75.64 75.64h544.58c58.39 0 105.89-47.51 105.89-105.89V269.97h90.76c8.35 0 15.13-6.77 15.13-15.13v-30.25c0-41.71-33.94-75.64-75.64-75.64zM171.64 844.8c-25.02 0-45.38-20.36-45.38-45.38v-15.13h514.33v15.13c0 4.81 0.56 9.47 1.42 14.03 0.27 1.45 0.71 2.83 1.07 4.25 0.77 3.08 1.67 6.09 2.8 9 0.59 1.53 1.25 3 1.94 4.47 1.28 2.74 2.71 5.36 4.29 7.9 0.81 1.31 1.58 2.63 2.47 3.88 0.42 0.59 0.74 1.26 1.17 1.85H171.64z m620.21-75.64c0 41.7-33.93 75.64-75.64 75.64-25.02 0-45.38-20.36-45.38-45.38v-30.25c0-8.36-6.77-15.13-15.13-15.13H217.02v-499.2c0-41.7 33.93-75.64 75.64-75.64h499.19v589.96z m105.89-529.45H822.1V179.2h30.25c25.02 0 45.38 20.36 45.38 45.38v15.13h0.01z" fill="#1D2088" p-id="2471"></path><path d="M307.78 330.47h166.4c8.35 0 15.13-6.77 15.13-15.13s-6.77-15.13-15.13-15.13h-166.4c-8.35 0-15.13 6.77-15.13 15.13s6.78 15.13 15.13 15.13zM685.96 406.11H307.78c-8.35 0-15.13 6.77-15.13 15.13s6.77 15.13 15.13 15.13h378.18c8.35 0 15.13-6.77 15.13-15.13s-6.77-15.13-15.13-15.13zM307.78 542.25h242.03c8.35 0 15.13-6.77 15.13-15.13s-6.77-15.13-15.13-15.13H307.78c-8.35 0-15.13 6.77-15.13 15.13 0.01 8.37 6.78 15.13 15.13 15.13zM640.58 617.89h-332.8c-8.35 0-15.13 6.77-15.13 15.13s6.77 15.13 15.13 15.13h332.8c8.35 0 15.13-6.77 15.13-15.13s-6.78-15.13-15.13-15.13z" fill="#1D2088" p-id="2472"></path></svg>