<svg t="1770318676904" class="icon" viewBox="0 0 1024 1024" version="1.1" xmlns="http://www.w3.org/2000/svg" p-id="2580" width="200" height="200"><path d="M388.974156 633.017352L135.721568 711.782193 86.730338 1023.201168h850.539324l-48.99123-311.418975-272.698443-78.764841H388.974156z" fill="#FFFEFB" p-id="2581"></path><path d="M590.165718 1023.201168H451.522707L321.609789 653.969576l67.364367-20.952224h233.350258l73.184429 23.850843-105.343125 366.332973z" fill="#009F7F" p-id="2582"></path><path d="M240.163154 679.292552l-16.684178 62.548551 56.123659 33.288473-26.201692 74.473972 122.518015 173.59762h75.603749L321.609789 653.969576l-81.446635 25.322976zM766.07995 675.823339l16.684178 64.283157-56.123658 33.288473 26.201692 74.462561-122.518015 173.597619h-75.603749L687.520522 653.672867l78.559428 22.150472z" fill="#E3F4F9" p-id="2583"></path><path d="M622.324414 632.127225L580.944913 502.556664H426.188318l-41.425148 129.570561-63.187616 23.34872s48.797227 65.367287 178.447671 65.606936c143.17353 0.251062 182.133711-67.969197 182.133711-67.969197z" fill="#FFCFB5" p-id="2584"></path><path d="M719.359686 188.821076c-4.621814 126.158407 11.274944 204.14724-217.305145 202.880521-221.356365-1.266719-239.855033-76.585171-239.855034-202.880521C262.199507 0 378.943108 0 505.19281 0s221.071068 0 214.166876 188.821076z" p-id="2585"></path><path d="M664.76522 283.631031c66.805184-28.529717 93.851356 97.971047 5.089702 148.171936zM326.688079 292.441007c-66.805184-28.529717-93.851356 97.971047-5.07829 148.171936z" fill="#FFCFB5" p-id="2586"></path><path d="M672.513892 350.744336c-5.489117-161.752081-37.830404-168.085678-37.830405-168.085678l-58.291917 11.605888a480.052423 480.052423 0 0 1-78.742017 8.901272 480.326309 480.326309 0 0 1-78.81049-8.901272l-58.269093-11.605888s-38.903122 22.355886-37.853228 168.085678l-1.106953 89.902843c0 66.017764 73.686552 131.236696 190.395917 116.344184 73.036074 0 161.569491-50.32642 161.569491-116.344184z" fill="#FFE7D9" p-id="2587"></path><path d="M336.045826 132.001293a153.101871 102.478742 0 1 0 306.203742 0 153.101871 102.478742 0 1 0-306.203742 0Z" p-id="2588"></path><path d="M346.681704 725.236808c52.631621 66.668242 237.800894 66.668242 314.968071 0" fill="#009F7F" p-id="2589"></path><path d="M295.020093 360.067847m-20.26751 0a20.267511 20.267511 0 1 0 40.535021 0 20.267511 20.267511 0 1 0-40.535021 0Z" p-id="2590"></path><path d="M695.508843 360.067847m-20.267511 0a20.267511 20.267511 0 1 0 40.535022 0 20.267511 20.267511 0 1 0-40.535022 0Z" p-id="2591"></path><path d="M752.842162 856.256678m-46.549086 0a46.549086 46.549086 0 1 0 93.098171 0 46.549086 46.549086 0 1 0-93.098171 0Z" fill="#120D0C" p-id="2592"></path></svg>