<svg t="1769691640575" class="icon" viewBox="0 0 1131 1024" version="1.1" xmlns="http://www.w3.org/2000/svg" p-id="2451" width="200" height="200"><path d="M771.072 3.125895H360.717474c-48.882526 0-94.100211 25.869474-118.352842 67.907368L19.348211 444.793263a133.605053 133.605053 0 0 0-0.269474 134.036211l223.555368 374.999579a136.353684 136.353684 0 0 0 118.083369 67.47621h410.354526c48.882526 0 94.046316-25.869474 118.352842-67.907368l223.447579-374.083369c24.144842-41.876211 24.144842-92.698947 0.269474-134.03621L889.155368 70.602105A136.353684 136.353684 0 0 0 771.072 3.125895zM360.717474 77.824h410.354526c22.312421 0 42.792421 11.749053 53.679158 30.612211l223.986526 374.622315c10.24 17.785263 10.24 40.097684-0.269473 58.368l-223.447579 374.083369a62.086737 62.086737 0 0 1-53.948632 31.043368H360.717474c-22.312421 0-42.792421-11.749053-53.679158-30.61221l-223.555369-374.945685c-10.24-17.839158-10.24-40.151579 0.269474-58.421894L306.768842 108.867368a62.086737 62.086737 0 0 1 53.948632-31.043368z" fill="#1296db" p-id="2452"></path><path d="M561.044211 730.273684l-17.569685-69.739789H426.307368l-18.701473 69.739789H309.733053l138.509473-468.453052h72.218948l138.509473 468.453052h-97.872842zM486.831158 439.457684l-34.223158 125.03579h66.290526l-32.067368-125.03579z m210.728421 290.816V261.820632h93.561263v468.453052H697.397895z" fill="#1296db" p-id="2453"></path></svg>