<svg t="1770456543887" class="icon" viewBox="0 0 1024 1024" version="1.1" xmlns="http://www.w3.org/2000/svg" p-id="2636" width="200" height="200"><path d="M512 11.636364C235.659636 11.636364 11.636364 235.659636 11.636364 512S235.659636 1012.363636 512 1012.363636 1012.363636 788.340364 1012.363636 512 788.340364 11.636364 512 11.636364z m0 23.272727c263.493818 0 477.090909 213.597091 477.090909 477.090909S775.493818 989.090909 512 989.090909 34.909091 775.493818 34.909091 512 248.506182 34.909091 512 34.909091z" fill="#4A90E2" p-id="2637"></path><path d="M450.932364 619.915636c16.290909 0 31.557818 7.842909 41.053091 21.038546l31.604363 43.892363 32-44.055272c8.890182-12.241455 22.807273-19.874909 37.934546-20.782546l3.025454-0.093091h114.897455a79.499636 79.499636 0 0 1 79.499636 79.499637v57.832727a79.499636 79.499636 0 0 1-79.499636 79.499636H335.616a79.499636 79.499636 0 0 1-79.499636-79.499636v-57.832727a79.499636 79.499636 0 0 1 79.499636-79.499637h115.316364z m231.610181-274.641454a21.690182 21.690182 0 0 1 21.690182 21.690182 180.689455 180.689455 0 0 1-180.689454 180.689454 180.689455 180.689455 0 0 1-180.689455-180.689454 21.690182 21.690182 0 0 1 21.666909-21.690182h318.021818z m-158.999272-158.999273a180.642909 180.642909 0 0 1 154.368 86.714182h62.440727a21.690182 21.690182 0 0 1 2.094545 43.287273l-2.094545 0.093091H306.734545a21.690182 21.690182 0 0 1-2.094545-43.287273l2.094545-0.093091h62.440728a180.642909 180.642909 0 0 1 154.391272-86.714182z" fill="#4A90E2" p-id="2638"></path></svg>