<svg t="1769200458699" class="icon" viewBox="0 0 1024 1024" version="1.1" xmlns="http://www.w3.org/2000/svg" p-id="1607" width="200" height="200"><path d="M689.024 0h-354.048C256 0 192 64 192 142.976v738.048C192 960 256 1024 334.976 1024h354.048C768 1024 832 960 832 881.024V142.976C832 64 768 0 689.024 0zM768 881.024c0 43.52-35.456 78.976-78.976 78.976h-354.048c-43.52 0-78.976-35.456-78.976-78.976V768h512v113.024z m0-177.024H256V142.976c0-43.52 35.456-78.976 78.976-78.976h354.048c43.52 0 78.976 35.456 78.976 78.976V704z" fill="#1CC478" p-id="1608"></path><path d="M544 128h-64a32 32 0 1 0 0 64h64a32 32 0 0 0 0-64z" fill="#1CC478" p-id="1609"></path><path d="M512 864m-33.92 0a33.92 33.92 0 1 0 67.84 0 33.92 33.92 0 1 0-67.84 0Z" fill="#1CC478" p-id="1610"></path></svg>